<svg xmlns="http://www.w3.org/2000/svg" width="97" height="96" viewBox="0 0 97 96" fill="none">
  <rect x="0.72998" y="0.13855" width="95.4197" height="95.4197" rx="47.7099" fill="#191919" fill-opacity="0.6"/>
  <path d="M41.6842 37.4144L58.3954 47.1631C58.5152 47.2332 58.6145 47.3335 58.6835 47.4538C58.7525 47.5742 58.7888 47.7106 58.7888 47.8493C58.7888 47.9881 58.7525 48.1245 58.6835 48.2449C58.6145 48.3652 58.5152 48.4655 58.3954 48.5356L41.6842 58.2843C41.5631 58.3549 41.4255 58.3923 41.2854 58.3927C41.1452 58.393 41.0074 58.3563 40.886 58.2862C40.7646 58.2161 40.6638 58.1152 40.594 57.9937C40.5242 57.8721 40.4877 57.7343 40.4883 57.5941V38.1014C40.4882 37.9615 40.5251 37.8241 40.5952 37.703C40.6653 37.5819 40.766 37.4814 40.8874 37.4117C41.0087 37.342 41.1462 37.3056 41.2862 37.306C41.4261 37.3065 41.5634 37.3439 41.6842 37.4144Z" fill="white"/>
</svg>